<?xml version="1.0" encoding="UTF-8"?>
<svg xmlns="http://www.w3.org/2000/svg" xmlns:xlink="http://www.w3.org/1999/xlink" width="32pt" height="32pt" viewBox="0 0 32 32" version="1.1">
<defs>
<linearGradient id="linear0" gradientUnits="userSpaceOnUse" x1="0.614868" y1="0.539066" x2="0.25" y2="0.320313" spreadMethod="reflect" gradientTransform="matrix(107.46496,0,0,95.928118,300.687711,32.607015)">
<stop offset="0" style="stop-color:rgb(87.058824%,58.431373%,0%);stop-opacity:1;"/>
<stop offset="1" style="stop-color:rgb(100%,100%,5.882353%);stop-opacity:1;"/>
</linearGradient>
</defs>
<g id="surface1">
<path style="fill-rule:evenodd;fill:rgb(100%,100%,100%);fill-opacity:1;stroke-width:10;stroke-linecap:butt;stroke-linejoin:round;stroke:rgb(0%,0%,0%);stroke-opacity:1;stroke-miterlimit:4;" d="M 98.356996 20.907249 C 86.699281 170.016136 133.635316 233.614769 96.648011 472.872581 C 96.648011 472.872581 429.899965 476.229515 429.045472 476.229515 C 472.502504 226.229515 403.837953 144.930687 431.731019 79.439964 C 377.898011 78.707542 364.592347 20.052757 364.592347 20.052757 Z M 98.356996 20.907249 " transform="matrix(0.064,0,0,0.064,-2.025316,-0.607595)"/>
<path style="fill-rule:evenodd;fill:rgb(93.333333%,92.156863%,100%);fill-opacity:1;stroke-width:10;stroke-linecap:butt;stroke-linejoin:round;stroke:rgb(0%,0%,0%);stroke-opacity:1;stroke-miterlimit:4;" d="M 369.679847 22.603074 L 368.825355 81.990281 L 437.550941 81.990281 C 440.907875 76.863328 373.097816 24.312059 369.679847 22.603074 Z M 369.679847 22.603074 " transform="matrix(0.064,0,0,0.064,-2.350916,-0.716128)"/>
<path style="fill-rule:evenodd;fill:rgb(80%,65.882353%,61.568627%);fill-opacity:1;stroke-width:13.698779;stroke-linecap:butt;stroke-linejoin:round;stroke:rgb(0%,0%,0%);stroke-opacity:1;stroke-miterlimit:4;" d="M 99.839407 380.664787 L 76.040654 482.280678 L 175.764842 411.650418 C 175.764842 411.650418 167.035888 351.546783 99.839407 380.664787 Z M 99.839407 380.664787 " transform="matrix(0.0474355,0,0,0.0460143,10.560941,5.956643)"/>
<path style="fill-rule:evenodd;fill:rgb(78.823529%,39.215686%,0%);fill-opacity:1;stroke-width:13.698779;stroke-linecap:butt;stroke-linejoin:round;stroke:rgb(0%,0%,0%);stroke-opacity:1;stroke-miterlimit:4;" d="M 100.745242 380.664787 L 325.309951 62.489048 C 325.309951 62.489048 346.473549 36.0027 370.354651 51.028609 C 377.436633 52.726452 375.624963 51.028609 389.788927 61.555234 C 393.329918 64.271783 395.059239 85.494818 395.059239 85.494818 C 395.059239 85.494818 174.11787 411.650418 174.11787 412.499339 C 174.11787 413.348261 170.576879 393.059039 151.142603 382.447522 C 133.437648 371.836004 101.651077 381.598601 100.745242 380.664787 Z M 100.745242 380.664787 " transform="matrix(0.0474355,0,0,0.0460143,10.560941,5.956643)"/>
<path style="fill-rule:evenodd;fill:rgb(0%,0%,0%);fill-opacity:1;stroke-width:17.123474;stroke-linecap:butt;stroke-linejoin:round;stroke:rgb(0%,0%,0%);stroke-opacity:1;stroke-miterlimit:4;" d="M 75.134819 483.214492 L 83.122636 451.379939 C 83.122636 450.531018 93.66326 450.531018 97.204251 454.945409 C 100.745242 455.794331 101.651077 462.840378 101.651077 462.840378 Z M 75.134819 483.214492 " transform="matrix(0.0474355,0,0,0.0460143,10.560941,5.956643)"/>
<path style="fill-rule:evenodd;fill:rgb(98.823529%,39.215686%,89.019608%);fill-opacity:1;stroke-width:13.698779;stroke-linecap:butt;stroke-linejoin:round;stroke:rgb(0%,0%,0%);stroke-opacity:1;stroke-miterlimit:4;" d="M 315.510465 74.8833 L 358.825843 22.674635 C 358.825843 22.674635 377.436633 3.234335 395.965074 12.996931 C 414.575864 22.674635 405.682212 17.411322 414.575864 23.608448 C 422.481333 36.0027 411.85836 58.923578 411.034873 58.923578 C 410.129038 58.923578 374.801477 117.244478 374.801477 117.244478 C 374.801477 117.244478 383.61278 106.632961 368.542981 98.737992 C 351.82621 76.581143 314.686978 74.8833 315.510465 74.8833 Z M 315.510465 74.8833 " transform="matrix(0.0474355,0,0,0.0460143,10.560941,5.956643)"/>
<path style="fill-rule:evenodd;fill:url(#linear0);stroke-width:13.698779;stroke-linecap:butt;stroke-linejoin:round;stroke:rgb(0%,0%,0%);stroke-opacity:1;stroke-miterlimit:4;" d="M 305.793326 87.192661 C 304.96984 87.192661 342.026723 39.483278 342.026723 39.483278 C 342.026723 39.483278 357.096522 37.700543 370.354651 41.266013 C 385.342101 47.463139 379.165954 43.048748 389.788927 51.028609 C 399.506065 58.923578 401.317735 77.514957 401.317735 77.514957 L 372.989807 121.658869 C 372.989807 121.658869 373.895642 112.830087 365.084339 103.152383 C 350.920375 91.607052 336.756411 89.909209 327.945107 86.343739 C 315.510465 84.561004 304.96984 88.126474 305.793326 87.192661 Z M 305.793326 87.192661 " transform="matrix(0.0474355,0,0,0.0460143,10.560941,5.956643)"/>
<path style=" stroke:none;fill-rule:evenodd;fill:rgb(100%,100%,100%);fill-opacity:1;" d="M 14.207031 28.070312 C 14.207031 28.015625 14.535156 26.808594 14.621094 26.808594 C 14.710938 26.808594 15.007812 26.863281 15.007812 26.949219 C 14.503906 27.238281 14.296875 27.984375 14.207031 28.070312 Z M 14.207031 28.070312 "/>
<path style=" stroke:none;fill-rule:evenodd;fill:rgb(100%,100%,100%);fill-opacity:0.501961;" d="M 16.359375 22.769531 C 17.042969 21.714844 25.136719 10.707031 25.378906 10.550781 C 28.757812 9.183594 18.730469 19.492188 16.359375 22.769531 Z M 16.359375 22.769531 "/>
<path style=" stroke:none;fill-rule:evenodd;fill:rgb(100%,100%,100%);fill-opacity:0.501961;" d="M 15.007812 26.503906 C 15.007812 26.390625 15.492188 24.320312 15.730469 23.65625 C 15.8125 23.65625 17.085938 23.464844 17.527344 24.167969 C 15.957031 24.398438 15.089844 26.195312 15.007812 26.503906 Z M 15.007812 26.503906 "/>
<path style=" stroke:none;fill-rule:evenodd;fill:rgb(0%,0%,0%);fill-opacity:0.25098;" d="M 29.265625 6.761719 C 29.265625 6.761719 30.1875 6.957031 30.1875 7.230469 C 30.429688 8.011719 29.988281 8.441406 29.707031 8.910156 C 29.785156 8.167969 29.949219 7.816406 29.265625 6.761719 Z M 29.265625 6.761719 "/>
</g>
</svg>
